<?xml version="1.0" encoding="utf-8"?>
<!-- Svg Vector Icons : http://www.onlinewebfonts.com/icon -->
<!DOCTYPE svg PUBLIC "-//W3C//DTD SVG 1.1//EN" "http://www.w3.org/Graphics/SVG/1.1/DTD/svg11.dtd">
<svg version="1.1" xmlns="http://www.w3.org/2000/svg" xmlns:xlink="http://www.w3.org/1999/xlink" x="0px" y="0px" viewBox="0 0 256 256" enable-background="new 0 0 256 256" xml:space="preserve">
<metadata> Svg Vector Icons : http://www.onlinewebfonts.com/icon </metadata>
<g><g><path stroke-width="6" fill-opacity="0" stroke="#000000"  d="M155.8,19.1H95.6c-15.8,0-35.6,2.3-52.3,15.7C30.7,45.4,24.6,60,24.6,73.1c0,22.3,17.6,44.9,48.5,44.9c2.9,0,6.1-0.3,9.4-0.6c-1.5,3.4-2.9,6.3-2.9,11.1c0,8.9,4.7,14.3,8.8,19.4c-13.1,0.9-37.7,2.3-55.8,13.1C15.2,171.2,10,185.7,10,196c0,21.1,20.4,40.9,62.8,40.9c50.3,0,76.9-27.1,76.9-54c0-19.7-11.7-29.5-24.5-40l-10.5-8c-3.2-2.6-7.6-6-7.6-12.3c0-6.3,4.4-10.3,8.2-14c12.3-9.4,24.5-19.4,24.5-40.6c0-21.7-14-33.1-20.8-38.6h18.1L155.8,19.1z M130.1,194c0,17.7-14.9,30.8-43,30.8c-31.3,0-51.5-14.6-51.5-34.9s18.7-27.1,25.1-29.4c12.3-4,28.1-4.6,30.7-4.6c2.9,0,4.4,0,6.7,0.3C120.5,171.7,130.1,179.4,130.1,194z M106.7,102c-4.7,4.6-12.6,8-19.9,8c-25.1,0-36.6-31.7-36.6-50.9c0-7.4,1.5-15.1,6.4-21.1c4.7-5.7,12.9-9.4,20.4-9.4c24.3,0,36.9,32,36.9,52.6C114,86.3,113.5,95.4,106.7,102z M216.8,58.6V29h-19.5v29.6h-29.5v19.7h29.5v29h19.5v-29H246V58.6H216.8z"/></g></g>
</svg>